<svg width="67" height="144" viewBox="0 0 67 144" fill="none" xmlns="http://www.w3.org/2000/svg">
<path d="M7.20769 53.291C3.86182 54.8295 3.22191 59.816 6.37977 61.7107C20.6538 70.2751 22.0106 90.4473 9.01208 100.846C-8.61974 114.952 1.35435 143.385 23.9341 143.385H29.1283C47.5121 143.385 59.9548 124.651 52.825 107.706L36.5886 69.1179C32.2651 58.8426 35.0502 46.952 43.4872 39.6656C57.3953 27.654 54.0071 9.90264 43.3519 0.518431C41.9147 -0.747343 39.8378 0.470351 39.8378 2.38549C39.8378 24.9718 26.4663 44.4351 7.20769 53.291Z" fill="#fff"/>
<path d="M37.8391 58.8838C37.8391 50.8757 44.331 44.3838 52.3391 44.3838C60.3472 44.3838 66.8391 50.8757 66.8391 58.8838C66.8391 66.8919 60.3472 73.3838 52.3391 73.3838C44.331 73.3838 37.8391 66.8919 37.8391 58.8838Z" fill="#fff"/>
</svg>
