<?xml version="1.0" standalone="no"?>
<!DOCTYPE svg PUBLIC "-//W3C//DTD SVG 20010904//EN"
 "http://www.w3.org/TR/2001/REC-SVG-20010904/DTD/svg10.dtd">
<svg version="1.0" xmlns="http://www.w3.org/2000/svg"
 width="1152.000000pt" height="1152.000000pt" viewBox="0 0 1152.000000 1152.000000"
 preserveAspectRatio="xMidYMid meet">
<metadata>
Created by potrace 1.14, written by Peter Selinger 2001-2017
</metadata>
<g transform="translate(0.000000,1152.000000) scale(0.100000,-0.100000)"
fill="#000000" stroke="none">
<path d="M6375 11505 c-88 -47 -105 -91 -110 -268 -5 -154 -10 -243 -21 -352
-4 -38 -8 -81 -9 -95 -2 -22 -8 -65 -20 -140 -2 -14 -7 -44 -10 -68 -5 -38
-48 -247 -61 -297 -3 -11 -7 -31 -10 -45 -8 -38 -50 -187 -74 -260 -12 -36
-23 -69 -24 -75 -2 -5 -6 -17 -9 -25 -3 -8 -17 -46 -31 -85 -116 -328 -302
-689 -515 -1000 -65 -95 -170 -236 -186 -250 -6 -5 -22 -26 -35 -45 -14 -19
-32 -42 -40 -50 -8 -9 -42 -47 -75 -86 -78 -90 -338 -349 -395 -394 -25 -19
-54 -44 -65 -56 -11 -11 -54 -47 -95 -80 -41 -32 -76 -62 -78 -66 -2 -5 -10
-8 -17 -8 -8 0 -18 -6 -22 -13 -4 -6 -28 -26 -53 -42 -25 -16 -47 -33 -50 -36
-8 -10 -229 -154 -290 -189 -124 -72 -171 -97 -310 -167 -85 -43 -156 -81
-158 -85 -2 -5 -8 -8 -13 -8 -20 0 -97 -87 -124 -139 -32 -64 -54 -162 -47
-211 2 -19 4 -43 4 -54 -1 -30 52 -138 85 -172 16 -17 81 -65 144 -107 134
-90 161 -112 289 -235 125 -121 240 -269 313 -402 11 -19 29 -53 41 -75 43
-77 125 -286 141 -355 2 -8 10 -42 19 -75 8 -33 18 -78 22 -99 3 -21 7 -48 9
-59 19 -96 25 -359 12 -493 -27 -280 -135 -589 -291 -834 -99 -154 -239 -310
-409 -452 -159 -134 -254 -231 -343 -349 -27 -35 -52 -65 -56 -67 -5 -2 -8 -8
-8 -14 0 -5 -10 -24 -22 -41 -28 -38 -39 -57 -73 -122 -14 -27 -30 -57 -35
-65 -47 -80 -139 -354 -155 -465 -2 -11 -6 -33 -9 -50 -17 -97 -21 -146 -21
-295 0 -169 6 -253 26 -350 6 -30 13 -68 16 -85 18 -107 89 -306 160 -449 45
-92 171 -300 192 -316 3 -3 19 -23 35 -45 79 -108 342 -343 454 -405 15 -9 38
-23 52 -32 134 -86 395 -187 547 -212 12 -2 36 -7 55 -12 18 -4 44 -9 58 -10
14 -2 50 -7 80 -11 75 -11 843 -10 905 1 27 4 59 10 70 11 127 18 329 72 430
115 147 63 208 94 312 156 392 237 698 611 868 1059 32 86 79 257 90 330 2 17
7 41 10 55 13 60 20 166 20 315 0 206 -11 301 -56 485 -21 86 -73 248 -89 278
-5 10 -22 51 -39 92 -54 136 -151 364 -165 390 -8 14 -15 30 -16 35 -5 22
-130 324 -176 423 -13 29 -24 55 -24 58 0 3 -13 36 -29 72 -16 37 -59 139 -95
227 -37 88 -71 169 -76 180 -5 11 -28 65 -50 120 -23 55 -51 117 -61 138 -10
22 -19 42 -19 47 0 4 -10 29 -22 56 -12 27 -23 51 -23 54 -1 3 -6 16 -13 30
-6 14 -29 70 -52 125 -50 121 -104 247 -136 320 -9 22 -18 42 -19 45 -5 15
-19 49 -35 85 -15 36 -43 102 -75 180 -7 17 -32 75 -54 130 -23 55 -50 118
-60 140 -95 204 -191 501 -207 640 -3 22 -7 47 -9 55 -23 80 -22 426 1 555 2
11 5 38 8 60 19 155 103 411 192 588 132 262 229 382 599 737 66 63 147 149
180 190 33 41 63 77 68 78 4 2 7 10 7 18 0 8 5 14 10 14 6 0 10 6 10 14 0 8 3
16 8 18 25 11 212 353 212 388 0 6 4 18 9 28 13 22 47 128 56 172 4 19 12 41
17 48 6 6 8 12 5 12 -3 0 -1 17 4 38 27 113 42 258 41 412 -1 148 -14 282 -40
398 -6 23 -8 42 -5 42 3 0 1 6 -5 13 -6 7 -13 28 -14 46 -1 18 -6 35 -10 37
-4 3 -8 12 -8 21 0 13 -39 132 -67 203 -4 8 -7 17 -7 20 -1 3 -25 54 -55 114
-109 225 -249 423 -420 595 -58 59 -118 115 -133 125 -38 25 -116 31 -153 11z"/>
<path d="M7149 7966 c-2 -2 -22 -6 -44 -10 -22 -3 -51 -8 -65 -11 -14 -2 -38
-7 -55 -11 -76 -15 -315 -117 -335 -143 -3 -3 -12 -10 -21 -16 -64 -39 -118
-79 -114 -86 3 -4 -3 -10 -14 -14 -33 -10 -221 -233 -221 -262 0 -6 -4 -13 -8
-15 -13 -5 -77 -138 -96 -198 -10 -30 -20 -62 -23 -70 -7 -18 -7 -18 -22 -90
-20 -103 -21 -115 -22 -225 0 -113 3 -141 27 -260 75 -364 348 -682 707 -824
42 -17 88 -33 101 -35 14 -3 29 -7 34 -10 5 -3 22 -8 38 -11 150 -29 402 -27
513 5 17 5 31 6 31 3 0 -3 6 -1 13 5 6 6 14 10 17 10 31 -5 261 102 334 155
163 117 289 261 373 427 26 52 49 100 50 105 1 6 11 35 22 65 18 51 33 113 48
200 8 46 8 242 1 305 -32 261 -158 510 -351 694 -82 78 -182 147 -279 194 -81
39 -152 70 -168 73 -3 0 -24 6 -48 13 -24 6 -57 14 -75 16 -18 3 -43 8 -57 11
-28 7 -284 16 -291 10z"/>
</g>
</svg>
